<svg id="visual" viewBox="0 0 900 600" width="900" height="600" xmlns="http://www.w3.org/2000/svg" xmlns:xlink="http://www.w3.org/1999/xlink" version="1.1"><path d="M0 49L47 49L47 49L95 49L95 91L142 91L142 67L189 67L189 79L237 79L237 91L284 91L284 55L332 55L332 55L379 55L379 31L426 31L426 37L474 37L474 61L521 61L521 25L568 25L568 55L616 55L616 61L663 61L663 43L711 43L711 73L758 73L758 31L805 31L805 49L853 49L853 61L900 61L900 43L900 0L900 0L853 0L853 0L805 0L805 0L758 0L758 0L711 0L711 0L663 0L663 0L616 0L616 0L568 0L568 0L521 0L521 0L474 0L474 0L426 0L426 0L379 0L379 0L332 0L332 0L284 0L284 0L237 0L237 0L189 0L189 0L142 0L142 0L95 0L95 0L47 0L47 0L0 0Z" fill="#ffffff"></path><path d="M0 85L47 85L47 115L95 115L95 133L142 133L142 97L189 97L189 139L237 139L237 157L284 157L284 139L332 139L332 139L379 139L379 139L426 139L426 79L474 79L474 115L521 115L521 49L568 49L568 79L616 79L616 157L663 157L663 97L711 97L711 163L758 163L758 115L805 115L805 97L853 97L853 127L900 127L900 109L900 41L900 59L853 59L853 47L805 47L805 29L758 29L758 71L711 71L711 41L663 41L663 59L616 59L616 53L568 53L568 23L521 23L521 59L474 59L474 35L426 35L426 29L379 29L379 53L332 53L332 53L284 53L284 89L237 89L237 77L189 77L189 65L142 65L142 89L95 89L95 47L47 47L47 47L0 47Z" fill="#ffeed8"></path><path d="M0 151L47 151L47 217L95 217L95 229L142 229L142 187L189 187L189 169L237 169L237 211L284 211L284 241L332 241L332 193L379 193L379 223L426 223L426 211L474 211L474 235L521 235L521 109L568 109L568 151L616 151L616 265L663 265L663 217L711 217L711 259L758 259L758 199L805 199L805 127L853 127L853 217L900 217L900 217L900 107L900 125L853 125L853 95L805 95L805 113L758 113L758 161L711 161L711 95L663 95L663 155L616 155L616 77L568 77L568 47L521 47L521 113L474 113L474 77L426 77L426 137L379 137L379 137L332 137L332 137L284 137L284 155L237 155L237 137L189 137L189 95L142 95L142 131L95 131L95 113L47 113L47 83L0 83Z" fill="#ffdeb2"></path><path d="M0 307L47 307L47 355L95 355L95 277L142 277L142 307L189 307L189 229L237 229L237 277L284 277L284 289L332 289L332 253L379 253L379 343L426 343L426 331L474 331L474 319L521 319L521 199L568 199L568 247L616 247L616 337L663 337L663 253L711 253L711 355L758 355L758 331L805 331L805 301L853 301L853 337L900 337L900 253L900 215L900 215L853 215L853 125L805 125L805 197L758 197L758 257L711 257L711 215L663 215L663 263L616 263L616 149L568 149L568 107L521 107L521 233L474 233L474 209L426 209L426 221L379 221L379 191L332 191L332 239L284 239L284 209L237 209L237 167L189 167L189 185L142 185L142 227L95 227L95 215L47 215L47 149L0 149Z" fill="#ffce8c"></path><path d="M0 439L47 439L47 481L95 481L95 385L142 385L142 391L189 391L189 511L237 511L237 505L284 505L284 475L332 475L332 511L379 511L379 421L426 421L426 499L474 499L474 469L521 469L521 319L568 319L568 499L616 499L616 535L663 535L663 529L711 529L711 475L758 475L758 415L805 415L805 499L853 499L853 553L900 553L900 385L900 251L900 335L853 335L853 299L805 299L805 329L758 329L758 353L711 353L711 251L663 251L663 335L616 335L616 245L568 245L568 197L521 197L521 317L474 317L474 329L426 329L426 341L379 341L379 251L332 251L332 287L284 287L284 275L237 275L237 227L189 227L189 305L142 305L142 275L95 275L95 353L47 353L47 305L0 305Z" fill="#febf66"></path><path d="M0 601L47 601L47 601L95 601L95 601L142 601L142 601L189 601L189 601L237 601L237 601L284 601L284 601L332 601L332 601L379 601L379 601L426 601L426 601L474 601L474 601L521 601L521 601L568 601L568 601L616 601L616 601L663 601L663 601L711 601L711 601L758 601L758 601L805 601L805 601L853 601L853 601L900 601L900 601L900 383L900 551L853 551L853 497L805 497L805 413L758 413L758 473L711 473L711 527L663 527L663 533L616 533L616 497L568 497L568 317L521 317L521 467L474 467L474 497L426 497L426 419L379 419L379 509L332 509L332 473L284 473L284 503L237 503L237 509L189 509L189 389L142 389L142 383L95 383L95 479L47 479L47 437L0 437Z" fill="#fcaf3c"></path></svg>